PathFileType	4	(X/Y/Z)	C:/Users/beibeiliu/ov580/test_trc/User3\out3_training_dense_left.trc
DataRate	CameraRate	NumFrames	NumMarkers	Units	OrigDataRate	OrigDataStartFrame	OrigNumFrames
120	120	20	19	mm	120	438	500
Frame#	Time	ThumbCMC			ThumbMCP			ThumbIP			ThumbTip			IndexMCP			IndexPIP			IndexTip			MiddleMCP			MiddlePIP			MiddleTip			RingMCP			RingPIP			RingTip			PinkyMCP			PinkyPIP			PinkyTip			BackHand1			BackHand2			BackHand3	
		X0	Y0	Z0	X1	Y1	Z1	X2	Y2	Z2	X3	Y3	Z3	X4	Y4	Z4	X5	Y5	Z5	X6	Y6	Z6	X7	Y7	Z7	X8	Y8	Z8	X9	Y9	Z9	X10	Y10	Z10	X11	Y11	Z11	X12	Y12	Z12	X13	Y13	Z13	X14	Y14	Z14	X15	Y15	Z15	X16	Y16	Z16	X17	Y17	Z17	X18	Y18	Z18	
437	3.64167	-154.351	64.6058	52.3521	-127.893	77.2603	38.7151	-106.804	86.7875	16.858	-88.6268	93.4903	2.20006	-167.585	62.488	-19.4184	-149.888	75.3373	-45.2869	-119.717	85.9074	-45.3706	-165.022	34.1799	-27.6952	-160.798	45.7964	-55.9327	-137.656	57.9296	-83.0634	-143.684	18.1677	-19.1465	-124.562	25.6885	-44.1788	-99.4697	37.4163	-53.7531	-124.576	8.27442	-2.49135	-99.3481	19.1989	-12.7144	-83.8978	33.4996	-12.3497	-164.784	5.23423	24.6113	-170.15	1.13359	58.4522	-182.725	38.3414	42.5681	
438	3.65	-159.017	62.0401	53.8049	-132.931	77.5863	36.8998	-112.218	92.7169	18.8191	-94.664	93.9913	4.68251	-168.529	54.928	-22.7895	-161.472	71.0605	-47.7374	-133.914	80.0567	-58.5778	-164.682	29.8001	-30.228	-157.782	38.8848	-59.782	-140.325	49.0691	-81.3989	-140.248	20.8626	-20.6799	-118.076	24.5186	-40.2164	-94.2909	39.6625	-44.2819	-118.988	9.15091	-0.307847	-97.3846	27.5967	-6.36033	-81.3775	45.1115	-0.260488	-166.204	5.85676	27.631	-169.885	3.07945	53.6397	-181.673	29.2425	41.4297	
439	3.65833	-163.105	64.7101	50.1543	-138.437	78.2176	36.5913	-118.614	93.2586	18.7876	-101.096	97.5182	4.89925	-170.615	47.6245	-21.4273	-167.186	63.5423	-52.105	-145.598	74.8645	-68.1191	-163.831	27.0282	-27.6256	-158.049	32.3311	-56.5763	-135.49	40.6262	-84.2553	-136.13	16.7312	-17.7513	-112.484	27.7571	-36.2367	-86.2621	44.6115	-37.0103	-114.997	10.2092	-0.26926	-97.1991	27.4983	-2.17193	-81.089	46.3001	10.6855	-164.285	3.21737	25.3451	-169.874	0.251865	57.7044	-181.798	26.2685	37.026	
440	3.66667	-166.119	58.591	49.8136	-142.64	78.3949	32.5821	-123.458	91.6902	13.8809	-106.611	105.061	1.81757	-172.908	42.4633	-25.0522	-172.552	53.4225	-52.8228	-158.292	66.0938	-71.875	-160.403	21.7484	-28.7084	-151.412	25.9343	-59.7818	-129.942	35.1015	-82.985	-127.537	14.5734	-20.4868	-106.062	27.7347	-31.8775	-87.0057	47.846	-28.8243	-112.936	12.3349	1.82068	-94.853	28.0955	3.13521	-86.6669	51.8559	21.3488	-159.48	-3.33404	26.0121	-169.278	-5.21455	53.7557	-181.903	21.9429	35.7267	
441	3.675	-173.022	57.9022	47.1709	-150.233	78.4669	29.726	-133.224	97.6234	13.1797	-116.594	104.077	1.24483	-174.97	38.6041	-22.1467	-172.527	44.2593	-55.8428	-165.285	56.5753	-73.8572	-154.683	17.9936	-32.9314	-144.556	22.6019	-56.6581	-123.79	36.1524	-80.1364	-126.254	14.3499	-14.5065	-105.989	32.9223	-27.5405	-85.9979	53.6001	-19.0978	-112.25	11.6199	6.43046	-92.4014	36.3041	11.6492	-92.5403	55.8408	30.2105	-159.369	-2.52294	26.8137	-166.589	-9.54207	56.8615	-181.951	17.6223	38.4403	
442	3.68333	-179.229	53.4403	45.8869	-160.84	77.7315	32.1109	-144.513	91.5512	12.6606	-128.554	107.349	-3.68972	-175.983	29.6269	-26.8547	-175.734	35.1926	-54.0346	-167.504	46.9526	-79.568	-151.629	15.9233	-28.6347	-138.46	21.3394	-55.5184	-113.549	42.6923	-77.4466	-123.042	18.1222	-14.9354	-98.6385	39.015	-21.5299	-86.791	64.3398	-6.3244	-105.294	17.3372	7.95391	-95.6631	39.4523	14.2028	-99.4206	59.114	36.6268	-153.195	-7.6076	24.7992	-162.118	-12.22	56.2038	-181.923	10.6955	36.2119	
443	3.69167	-183.471	44.4321	46.7761	-170.748	71.8666	24.9245	-158.475	90.8486	6.79425	-146.135	104.632	-4.4036	-175.406	21.0384	-27.0782	-175.722	25.1222	-54.9621	-169.449	34.5971	-77.0848	-144.474	10.926	-29.6584	-132.773	22.0935	-53.5994	-115.214	48.6077	-69.9437	-119.17	20.4622	-13.3612	-106.086	42.7042	-18.3939	-98.8016	69.2653	-0.802008	-110.093	19.5002	9.71691	-103.639	45.9216	14.5047	-106.032	62.5239	36.5802	-149.134	-12.6958	25.4182	-157.408	-15.9685	60.4358	-181.924	5.60057	34.5962	
444	3.7	-188.341	35.5602	42.5414	-180.378	61.8357	23.5673	-172.483	81.9132	7.30245	-162.645	97.4335	-6.18468	-174.925	13.9783	-26.6685	-179.353	17.8939	-51.8513	-175.479	30.2867	-81.9535	-145.781	12.1284	-29.3115	-131.91	28.5839	-51.0414	-113.91	59.1186	-58.5175	-121.956	22.1422	-10.1011	-108.742	52.9837	-11.3692	-109.48	72.8794	7.5315	-108.35	23.0534	11.5901	-106.546	51.3463	17.487	-115.143	68.1081	33.5634	-146.987	-14.0948	26.6697	-154.797	-19.1362	58.9652	-179.793	-3.3788	38.7617	
445	3.70833	-195.562	28.5793	45.6639	-192.827	55.864	27.0077	-185.473	78.1817	0.783255	-176.68	90.8896	-10.8275	-177.869	8.88928	-26.0401	-178.87	11.799	-55.2041	-174.795	23.9767	-79.9278	-144.42	12.2033	-27.6002	-136.888	34.9779	-48.5049	-123.838	68.4322	-46.1661	-129.392	24.1767	-10.4035	-116.867	50.8284	-10.0257	-121.201	75.1101	9.32017	-116.744	21.6951	8.99279	-112.306	47.5697	11.6929	-119.725	69.6701	27.3942	-147.263	-16.7668	29.6292	-155.848	-19.3784	59.9035	-181.902	-8.72958	36.6242	
446	3.71667	-199.903	23.1491	46.2455	-199.496	49.9704	21.4614	-199.033	69.1417	4.10028	-188.977	82.5709	-11.1161	-183.571	5.97603	-23.6812	-185.353	12.0015	-56.8502	-179.352	25.2808	-80.9152	-148.018	14.7855	-28.8758	-141.249	39.4509	-44.7087	-135.476	77.8934	-33.2995	-133.024	23.5674	-10.7152	-125.769	52.1255	-11.6624	-132.299	77.4241	11.5086	-116.197	23.567	5.1892	-116.098	49.0898	5.28602	-122.643	73.8614	20.5886	-146.099	-18.4568	29.9963	-156.317	-23.4411	59.9268	-181.522	-12.0735	38.8912	
447	3.725	-205.081	18.3879	45.9458	-207.791	42.6185	25.4683	-205.49	60.4537	4.4522	-199.046	76.9561	-17.6744	-182.596	3.30019	-28.0311	-188.088	12.494	-55.6178	-181.263	28.5164	-80.7239	-155.884	15.2218	-28.5179	-146.857	43.391	-40.7597	-143.726	77.0829	-23.3686	-138.508	19.9665	-12.6486	-128.274	52.9701	-13.2898	-137.379	73.6702	10.2177	-122.353	17.7218	2.32142	-115.93	44.6437	-2.88829	-126.115	69.3242	6.04302	-147.018	-17.9506	25.5197	-154.529	-23.8233	57.4722	-185.567	-14.6358	36.1986	
448	3.73333	-203.175	13.9054	46.2079	-209.055	36.2471	27.2548	-215.765	54.9219	-0.177015	-213.899	70.9419	-17.6476	-188.587	5.06857	-27.3549	-186.484	14.9295	-55.3292	-185.265	37.129	-76.0767	-156.917	15.9026	-27.546	-153.974	49.7316	-36.8583	-154.881	79.8175	-13.8021	-137.06	18.3291	-17.3183	-133.557	50.0671	-18.5509	-142.909	67.8276	1.54063	-120.919	12.2588	-2.54878	-115.52	33.6042	-11.367	-121.896	65.5944	-6.18787	-152.081	-19.721	24.991	-152.948	-24.8621	55.7703	-187.824	-17.129	34.4451	
449	3.74167	-209.34	12.1561	45.7897	-213.691	30.9199	23.8911	-221.804	49.3098	0.917291	-221.283	63.3	-14.7746	-191.841	7.43904	-27.7433	-188.033	24.9243	-55.474	-181.999	46.51	-69.2026	-161.61	17.8749	-29.0848	-158.686	48.5963	-36.1473	-158.385	77.2075	-11.8475	-143.714	14.0039	-21.3261	-139.075	39.9001	-27.299	-146.368	64.7065	-3.04697	-124.516	5.52326	0.579312	-114.73	24.1767	-16.3793	-116.384	55.7484	-18.3896	-156.853	-22.286	24.6894	-157.034	-27.777	55.2191	-187.358	-20.8721	37.424	
450	3.75	-211.177	8.96976	48.0514	-218.026	26.827	27.5402	-225.427	42.8571	0.976755	-228.132	56.3485	-14.9573	-190.87	9.79269	-30.0301	-188.424	30.8205	-50.3654	-185.735	55.7542	-59.205	-165.653	12.2864	-28.4158	-157.544	41.7086	-39.7152	-159.028	76.9556	-14.4345	-145.937	7.20763	-21.508	-137.387	36.9026	-31.4816	-142.076	61.9029	-9.04477	-126.052	3.4273	-2.59275	-113.683	21.0446	-18.6129	-113.883	48.1097	-22.6625	-152.657	-22.6518	30.5983	-157.703	-29.5511	59.9565	-190.212	-19.9683	39.862	
451	3.75833	-209.991	6.4871	46.8298	-221.796	24.3706	28.7222	-231.072	38.187	5.83853	-238.674	52.6747	-16.7039	-189.14	10.238	-25.3128	-190.165	35.6689	-46.1189	-184.291	66.5672	-49.2245	-161.801	9.02175	-31.7507	-155.954	38.9898	-43.5251	-154.92	73.1067	-25.0711	-143.112	2.81763	-20.3303	-134.735	25.0648	-35.1999	-140.347	56.7605	-22.7063	-126.481	3.37002	1.42171	-113.617	19.0123	-15.7242	-110.125	44.3243	-22.7525	-156.055	-22.7228	30.0607	-155.176	-27.6325	59.4713	-185.576	-20.2981	36.1541	
452	3.76667	-214.63	6.33429	48.7937	-221.949	22.8191	26.4016	-234.25	35.6147	7.201	-240.432	50.2267	-12.8	-188.818	12.3424	-27.5924	-188.804	34.9636	-43.7262	-179.114	67.8541	-43.1567	-158.887	3.46775	-30.9969	-156.933	28.9562	-50.2955	-152.613	67.096	-40.0302	-143.016	-0.340963	-15.0608	-133.82	22.5963	-35.8053	-137.578	56.0293	-28.2742	-120.819	6.09384	5.06038	-111.566	22.1007	-11.1733	-109.758	50.1232	-15.1496	-154.17	-21.5823	32.8609	-158.501	-27.2227	57.1212	-190.859	-22.289	39.8532	
453	3.775	-212.458	3.93617	50.4263	-226.354	21.5273	27.2823	-239.786	37.161	2.53002	-241.855	50.014	-11.975	-184.976	11.0934	-27.8719	-183.574	35.3178	-45.682	-181.164	66.7514	-44.239	-158.5	-3.15089	-24.889	-152.092	17.9763	-52.3989	-151.694	55.8322	-52.7669	-142.624	1.46936	-15.7037	-134.042	24.31	-37.8753	-135.762	56.2939	-29.9253	-121.781	11.7822	3.19936	-115.115	33.5664	-9.34896	-119.23	58.613	-11.5651	-156.37	-21.1652	32.9715	-159.016	-28.0364	60.8686	-190.632	-22.4008	37.6966	
454	3.78333	-218.141	3.9532	50.3054	-227.425	20.4244	27.2589	-242.964	35.9419	5.32008	-243.866	52.9719	-13.5901	-189.523	6.5798	-24.4357	-186.983	28.2429	-48.471	-185.693	59.5356	-50.0149	-157.942	-5.3868	-28.6221	-149.593	13.7895	-54.3714	-146.485	51.0873	-59.2516	-143.296	2.89361	-14.6261	-128.986	26.9473	-35.0862	-134.174	56.0204	-29.3008	-121.813	16.4901	8.17636	-116.968	38.1643	-4.37207	-126.496	66.0527	-3.58917	-154.328	-18.2226	31.5032	-159.7	-26.6226	62.8245	-184.626	-22.2828	36.8367	
455	3.79167	-213.991	4.7669	48.9858	-230.816	21.5486	30.5599	-241.813	37.8918	2.62041	-241.943	54.7406	-13.2318	-189.32	3.84857	-26.5596	-189.188	23.7703	-52.6256	-186.351	53.4061	-54.1434	-159.44	-7.08097	-22.9566	-153.571	8.87734	-57.2279	-148.041	43.4808	-64.0644	-142.159	2.79972	-13.342	-134.627	23.3214	-35.6542	-139.695	57.1877	-30.4509	-128.522	17.6564	7.32212	-124.995	44.3237	-4.22512	-135.478	69.7188	1.0506	-156.211	-17.3373	32.357	-159.438	-23.5896	63.6469	-185.967	-19.8202	37.3263	
456	3.8	-213.31	5.5608	46.2061	-233.722	22.574	28.9322	-239.21	39.366	3.91191	-234.352	56.2975	-11.6329	-186.587	1.0057	-26.2426	-189.01	18.4764	-54.1729	-183.877	49.0277	-57.7822	-162.943	-8.6973	-26.9591	-155.001	4.22841	-55.0976	-147.833	40.366	-63.7412	-143.13	3.92858	-14.1694	-134.258	28.0819	-35.0781	-138.564	57.0991	-27.6328	-127.15	23.4105	3.1315	-128.066	46.0377	-1.01932	-145.098	68.2285	8.17261	-155.645	-16.2544	28.7259	-161.053	-24.6515	57.5184	-188.541	-21.4799	38.811	
